Coordinates
version=1
nRows=12
nColumns=46
inDegrees=yes

Units are S.I. units (second, meters, Newtons, ...)
Angles are in degrees.

endheader
time	pelvis_tilt	pelvis_list	pelvis_rotation	pelvis_tx	pelvis_ty	pelvis_tz	bb_angle	bb_tx	bb_ty	bb_tz	hip_flexion_r	hip_adduction_r	hip_rotation_r	knee_angle_r	knee_angle_r_beta	ankle_angle_r	subtalar_angle_r	mtp_angle_r	crank_angle_r	hip_flexion_l	hip_adduction_l	hip_rotation_l	knee_angle_l	knee_angle_l_beta	ankle_angle_l	subtalar_angle_l	mtp_angle_l	crank_angle_l	lumbar_extension	lumbar_bending	lumbar_rotation	arm_flex_r	arm_add_r	arm_rot_r	elbow_flex_r	pro_sup_r	wrist_flex_r	wrist_dev_r	arm_flex_l	arm_add_l	arm_rot_l	elbow_flex_l	pro_sup_l	wrist_flex_l	wrist_dev_l
      2.50000000	    -11.78170998	     -3.01586578	     -2.48922668	      0.10887874	      1.13084841	     -0.29425033	      0.00000000	      0.50000000	      0.00000000	      0.25000000	     69.71913547	      1.66769119	      3.10530430	     71.31480043	      1.24467807	     13.05596457	    -11.50734083	      0.00000000	      0.00000000	     56.56211213	    -12.63379861	     -0.74467898	     83.05115399	      1.44951608	     -5.09284904	     -4.54121161	      0.00000000	      0.00000000	    -61.03745646	      2.96550891	     -0.35735587	     84.20585748	     -8.91129178	     33.53740106	     53.48652982	     44.34399713	      0.00000000	      0.00000000	     83.60385178	    -24.78675505	     36.73775917	     49.30385563	     45.91928161	      0.00000000	      0.00000000
      2.50500000	    -11.95150060	     -2.78183156	     -2.45828038	      0.10875107	      1.13156557	     -0.29388227	      0.00000000	      0.50000000	      0.00000000	      0.25000000	     68.91756132	      1.45086983	      3.21058979	     69.59211706	      1.21461158	     12.25245143	    -11.27299263	      0.00000000	      0.00000000	     57.27644983	    -12.54587869	     -0.78316712	     84.15937927	      1.46885826	     -4.71697277	     -4.61992715	      0.00000000	      0.00000000	    -60.96957430	      2.85003783	     -0.47602997	     84.03536221	     -8.89476936	     32.95981650	     53.95836287	     44.36797747	      0.00000000	      0.00000000	     83.62831585	    -24.64771880	     36.34753937	     49.36307724	     45.87449786	      0.00000000	      0.00000000
      2.51000000	    -12.02726728	     -2.44673299	     -2.44645630	      0.10893693	      1.13263678	     -0.29346999	      0.00000000	      0.50000000	      0.00000000	      0.25000000	     67.97608491	      1.13747123	      3.29295061	     67.85506937	      1.18429437	     11.54878396	    -10.93453042	      0.00000000	      0.00000000	     57.81696491	    -12.45172877	     -1.00944078	     85.18030377	      1.48667676	     -4.36497705	     -4.72600280	      0.00000000	      0.00000000	    -61.00620740	      2.63667602	     -0.68099552	     83.92727504	     -8.89892130	     32.53624709	     54.35526800	     44.39843347	      0.00000000	      0.00000000	     83.68113599	    -24.48604966	     36.09746903	     49.35773525	     45.83177405	      0.00000000	      0.00000000
      2.51500000	    -12.21190996	     -1.98531875	     -2.32181537	      0.10901613	      1.13337366	     -0.29325788	      0.00000000	      0.50000000	      0.00000000	      0.25000000	     67.20004614	      0.69847656	      3.53554748	     66.19129744	      1.15525608	     10.71259336	    -10.64012966	      0.00000000	      0.00000000	     58.49784655	    -12.10933415	     -1.19483215	     86.21931335	      1.50481090	     -3.87921651	     -4.66170869	      0.00000000	      0.00000000	    -60.81172157	      2.41448136	     -0.92148989	     84.07461438	     -9.19946012	     33.02025447	     53.89505491	     44.38311334	      0.00000000	      0.00000000	     84.22942888	    -24.24366862	     37.34537158	     48.42843848	     45.88152963	      0.00000000	      0.00000000
      2.52000000	    -12.29456271	     -1.67527399	     -2.24021431	      0.10924819	      1.13418734	     -0.29275688	      0.00000000	      0.50000000	      0.00000000	      0.25000000	     66.27041669	      0.40053794	      3.65681383	     64.50100164	      1.12575485	      9.90709714	    -10.36080522	      0.00000000	      0.00000000	     59.13340843	    -12.00206538	     -1.32587887	     87.30941984	      1.52383684	     -3.49374523	     -4.64754937	      0.00000000	      0.00000000	    -60.86032720	      2.28099089	     -1.12905383	     83.87801933	     -9.19426023	     32.30636575	     54.62898467	     44.40785720	      0.00000000	      0.00000000	     84.09813303	    -24.21823844	     36.70009951	     48.98503497	     45.83901654	      0.00000000	      0.00000000
      2.52500000	    -12.31138677	     -1.15321347	     -2.10826431	      0.10959872	      1.13521009	     -0.29251103	      0.00000000	      0.50000000	      0.00000000	      0.25000000	     65.30150813	     -0.10756734	      3.89339937	     62.86867539	      1.09726538	      9.08545764	    -10.00844084	      0.00000000	      0.00000000	     59.63319958	    -11.67414413	     -1.59790426	     88.32877231	      1.54162790	     -3.01523465	     -4.52887139	      0.00000000	      0.00000000	    -60.86313908	      2.02589202	     -1.50989781	     83.98915855	     -9.42107583	     32.91164503	     54.16200519	     44.39415823	      0.00000000	      0.00000000	     84.66764045	    -24.22462925	     38.14954398	     48.16757224	     45.97400558	      0.00000000	      0.00000000
      2.53000000	    -12.75092546	     -0.69139977	     -1.97039968	      0.10993489	      1.13529140	     -0.29215487	      0.00000000	      0.50000000	      0.00000000	      0.25000000	     64.81527760	     -0.56026118	      4.10523424	     61.30322942	      1.06994320	      8.31584073	     -9.45534481	      0.00000000	      0.00000000	     60.70434412	    -11.40121819	     -1.74280028	     89.44429275	      1.56109741	     -2.61274953	     -4.40420066	      0.00000000	      0.00000000	    -60.52991184	      1.80469932	     -1.92747675	     83.52396396	     -9.42930319	     31.82839121	     55.15822335	     44.41749998	      0.00000000	      0.00000000	     84.20490854	    -24.13862480	     36.81357153	     49.24055247	     45.88560339	      0.00000000	      0.00000000
      2.53500000	    -12.33190257	     -0.32164207	     -1.78767185	      0.11045938	      1.13721247	     -0.29169324	      0.00000000	      0.50000000	      0.00000000	      0.25000000	     63.26859404	     -1.01021461	      4.12974360	     59.56331929	      1.03957604	      7.25157929	     -9.61903563	      0.00000000	      0.00000000	     60.75775617	    -11.25668944	     -1.93918679	     90.40850438	      1.57792607	     -2.09938586	     -4.01655285	      0.00000000	      0.00000000	    -61.10487192	      1.70747178	     -2.20656706	     83.70328093	     -9.47575342	     31.90454071	     55.09363088	     44.41033380	      0.00000000	      0.00000000	     84.60785410	    -24.14780344	     37.31289674	     48.92162599	     45.90981750	      0.00000000	      0.00000000
      2.54000000	    -12.39386274	      0.09680832	     -1.62654936	      0.11088743	      1.13798139	     -0.29137082	      0.00000000	      0.50000000	      0.00000000	      0.25000000	     62.34166785	     -1.49889358	      4.20433680	     57.97339809	      1.01182668	      6.36083151	     -9.24728073	      0.00000000	      0.00000000	     61.44087499	    -11.04818467	     -2.09869460	     91.48492879	      1.59671322	     -1.73172715	     -3.76018343	      0.00000000	      0.00000000	    -61.14842700	      1.56509490	     -2.55919577	     83.60028807	     -9.51178182	     31.60618134	     55.38351379	     44.41164004	      0.00000000	      0.00000000	     84.65539102	    -24.15674054	     37.21057620	     49.12963859	     45.90406555	      0.00000000	      0.00000000
      2.54500000	    -12.42944662	      0.56693282	     -1.42745301	      0.11136297	      1.13886131	     -0.29081567	      0.00000000	      0.50000000	      0.00000000	      0.25000000	     61.38685428	     -2.03642246	      4.25782155	     56.42298635	      0.98476689	      5.36238881	     -9.02680105	      0.00000000	      0.00000000	     62.09841232	    -10.82544289	     -2.29271103	     92.51025343	      1.61460851	     -1.36858124	     -3.42827620	      0.00000000	      0.00000000	    -61.21335503	      1.36890236	     -2.95716788	     83.49761706	     -9.56890538	     31.46505116	     55.53999509	     44.41425611	      0.00000000	      0.00000000	     84.78030249	    -24.19866255	     37.38144471	     49.16053491	     45.91941545	      0.00000000	      0.00000000
      2.55000000	    -12.25899666	      0.95013905	     -1.17364154	      0.11185202	      1.13996362	     -0.29041614	      0.00000000	      0.50000000	      0.00000000	      0.25000000	     60.18329585	     -2.59419822	      4.16091893	     54.88059510	      0.95784708	      4.45359185	     -8.95861069	      0.00000000	      0.00000000	     62.58145040	    -10.64135939	     -2.41392014	     93.54056971	      1.63259093	     -0.96628797	     -2.92104626	      0.00000000	      0.00000000	    -61.48717024	      1.32509340	     -3.27736103	     83.52746403	     -9.63541056	     31.50300329	     55.58065212	     44.42132422	      0.00000000	      0.00000000	     85.14591259	    -24.33432524	     38.18431299	     48.89819594	     45.97787276	      0.00000000	      0.00000000
      2.55500000	    -12.20830961	      1.34950635	     -0.97883180	      0.11232989	      1.14087764	     -0.28991228	      0.00000000	      0.50000000	      0.00000000	      0.25000000	     59.12301888	     -3.10988098	      4.10435583	     53.34895823	      0.93111497	      3.50110469	     -8.64509876	      0.00000000	      0.00000000	     63.19636228	    -10.46797008	     -2.52531011	     94.53508033	      1.64994841	     -0.68813801	     -2.52719682	      0.00000000	      0.00000000	    -61.62192136	      1.17364036	     -3.64510463	     83.46454533	     -9.71628004	     31.40869811	     55.72536456	     44.43649733	      0.00000000	      0.00000000	     85.43194849	    -24.41684753	     38.70243311	     48.78706012	     46.00002862	      0.00000000	      0.00000000
